General
Complete name                  : Jack.Reacher.2012.R6.WEBRip.XVID.AC3.HQ.avi
Format                         : AVI
Format/Info                    : Audio Video Interleave
File size                      : 1.37 GiB
Duration                       : 2h 10mn
Overall bit rate               : 1 506 Kbps
Writing application            : Nandub v1.0rc2
Writing library                : Nandub build 1853/release

Video
ID                             : 0
Format                         : MPEG-4 Visual
Format profile                 : Advanced Simple@L5
Format settings, BVOP          : 2
Format settings, QPel          : Yes
Format settings, GMC           : No warppoints
Format settings, Matrix        : Default (H.263)
Muxing mode                    : Packed bitstream
Codec ID                       : XVID
Codec ID/Hint                  : XviD
Duration                       : 2h 10mn
Bit rate                       : 1 238 Kbps
Width                          : 720 pixels
Height                         : 256 pixels
Display aspect ratio           : 2.813
Frame rate                     : 29.970 fps
Color space                    : YUV
Chroma subsampling             : 4:2:0
Bit depth                      : 8 bits
Scan type                      : Progressive
Compression mode               : Lossy
Bits/(Pixel*Frame)             : 0.224
Stream size                    : 1.13 GiB (82%)
Writing library                : XviD 1.2.1 (UTC 2008-12-04)

Audio
ID                             : 1
Format                         : AC-3
Format/Info                    : Audio Coding 3
Codec ID                       : 2000
Duration                       : 2h 10mn
Bit rate mode                  : Constant
Bit rate                       : 256 Kbps
Channel(s)                     : 2 channels
Sampling rate                  : 48.0 KHz
Compression mode               : Lossy
Stream size                    : 239 MiB (17%)
Alignment                      : Split accross interleaves
Interleave, duration           : 33 ms (1.00 video frame)
Interleave, preload duration   : 500 ms


Plot..:
A homicide investigator digs deeper into a case involving
a trained military sniper who shot five random victims.


Cast..:
Tom Cruise       ...    Reacher
Rosamund Pike    ...    Helen
Richard Jenkins  ...    Rodin